<svg id="Layer_1" data-name="Layer 1" xmlns="http://www.w3.org/2000/svg" xmlns:xlink="http://www.w3.org/1999/xlink" width="8.5in" height="8.75in" viewBox="0 0 611.8 630.25"><defs><style>.cls-1,.cls-10,.cls-16,.cls-19,.cls-21,.cls-5,.cls-8{fill:none;}.cls-2{fill:#31c4f3;opacity:0.14;isolation:isolate;}.cls-3{clip-path:url(#clip-path);}.cls-4{fill:#d6eef6;}.cls-5{stroke:#9adaee;stroke-width:28.78px;}.cls-10,.cls-16,.cls-5{stroke-linecap:round;stroke-linejoin:round;}.cls-6{fill:#1fa54a;}.cls-7{fill:#9adaee;}.cls-8{stroke:#e4f4fb;stroke-width:7.75px;}.cls-19,.cls-21,.cls-8{stroke-miterlimit:10;}.cls-9{fill:#c5e6f2;}.cls-10,.cls-16{stroke:#fdd19e;}.cls-10{stroke-width:33.03px;}.cls-11{fill:#3db563;}.cls-12{fill:#fcc07e;}.cls-13{fill:#835522;}.cls-14{fill:#fdd19e;}.cls-15{fill:#fff;}.cls-16{stroke-width:3.66px;}.cls-17{fill:#f89c1c;}.cls-18{clip-path:url(#clip-path-2);}.cls-19{stroke:#f7801e;}.cls-19,.cls-21{stroke-width:3.84px;}.cls-20{clip-path:url(#clip-path-3);}.cls-21{stroke:#fff;}</style><clipPath id="clip-path"><path class="cls-1" d="M559.86,330.41c-72,114.5,1.41,303.89-254,295.54C137,620.43,0,489,0,320.14S143,7.63,311.69.41C476.54-6.65,719.08,77.29,559.86,330.41Z"/></clipPath><clipPath id="clip-path-2"><circle class="cls-1" cx="388.88" cy="511.26" r="55.37"/></clipPath><clipPath id="clip-path-3"><path class="cls-1" d="M373.35,378.28s-7.53-9.59-49.32-9.59H277.91c-41.79,0-49.32,9.59-49.32,9.59,17.1,30,0,59.37,0,59.37V551.93a3,3,0,0,0,3,3H370.35a3,3,0,0,0,3-3V437.65S356.25,408.27,373.35,378.28Z"/></clipPath></defs><title>basketball_illustration</title><path class="cls-2" d="M559.86,330.41c-72,114.5,1.41,303.89-254,295.54C137,620.43,0,489,0,320.14S143,7.63,311.69.41C476.54-6.65,719.08,77.29,559.86,330.41Z"/><g class="cls-3"><rect class="cls-4" y="362.65" width="611.8" height="267.6"/><line class="cls-5" x1="154.06" y1="44.01" x2="154.06" y2="409.41"/><rect class="cls-6" x="251.58" y="591.94" width="42.31" height="38.32"/><rect class="cls-6" x="308.54" y="591.94" width="42.31" height="38.32"/><path class="cls-6" d="M234.59,554.62H368.25v30.65a17,17,0,0,1-17,17H251.58a17,17,0,0,1-17-17h0V554.62Z"/><polygon class="cls-7" points="49.16 44.01 49.16 146.74 290.17 71.64 290.17 2.58 49.16 44.01"/><polyline class="cls-8" points="240.36 11.14 240.36 66.67 116.97 103.12 116.97 33.06"/><polygon class="cls-9" points="49.16 146.74 43.58 144.06 43.58 46.42 49.16 44.01 49.16 146.74"/><g id="gSY7oV"><path class="cls-7" d="M152.52,66.58h85.09l5.31.29h3c5.8,0,11.58-.05,17.38.07,4,.09,6.53,2.55,7.14,6.65.56,3.79-1.34,6.76-4.89,8.46a20.37,20.37,0,0,0-5.77,4c-5.22,5.32-9,11.81-12.18,18.69a22.58,22.58,0,0,0-.81,2.49l-3.7,8.54a166.76,166.76,0,0,0-8.64,39.84c-1,10-1.22,20.1-1.82,30.14-.09,1.5-.34,3-.51,4.47h-2.2c-.77-1.95-.9-4.07-3.06-5.4-3.53-2.2-6.73-2.58-10.13,0-5.51,4.2-11,4.91-16.61,0-.49-.44-1.2-.58-1.72-1-2.42-1.84-5-2-7.25-.09-6.6,5.56-12.89,4.53-19.66.1-5.57-3.64-9.94-.74-10.51,6.31h-2.24a41.08,41.08,0,0,1-1-6.44,233.6,233.6,0,0,0-6.81-56.15c-1-4-2.51-7.79-3.58-11.75a6.34,6.34,0,0,0-.62-1.58l-3.14-7a8.72,8.72,0,0,0-.52-1.81c-3.42-5.75-6.63-11.67-10.42-17.1a20.59,20.59,0,0,0-7.34-6.25c-3.91-2-5.94-4.51-5.37-8.64s3.27-6.5,7.5-6.6c3.74-.09,7.47,0,11.21-.06h9.14Zm55.06,60.6c3.8-4.69,7.34-9,10.68-13.37.45-.59.24-2.21-.18-3.06-3.18-6.47-6.49-12.86-9.77-19.26-.28-.55-.57-1.08-.84-1.6-1.64,3.72-3.08,7.31-4.8,10.75s-3.78,6.68-5.56,10.09c-.42.8-.75,2.32-.36,2.83,3.46,4.57,7.1,9,10.83,13.62Zm-27.64.11c3.3-4.06,6.24-7.93,9.46-11.52,2-2.22,2.28-4,.3-6.36a16.54,16.54,0,0,1-2.09-3.56c-2.6-5.27-5.17-10.56-7.49-15.3-3.48,6.62-7.17,13.54-10.73,20.54a3.45,3.45,0,0,0,.16,2.91c3.31,4.44,6.79,8.72,10.39,13.29Zm52.92-44.44H209.63c2.11,9.8,6.4,18.17,11.74,26.48,5-8.37,9.71-16.55,11.49-26.48Zm-55,0H154.53c2.14,9.83,6.36,18.26,11.75,26.5,5.14-8.46,9.66-16.72,11.57-26.54Zm27.65,0H182.06c2.23,9.93,6.42,18.27,11.73,26.33,5.22-8.08,9.42-16.37,11.71-26.32Zm29.88,44.83c2.36-6.75,4.58-12.93,6.63-19.19a6.06,6.06,0,0,0-.06-3.81c-2.08-4.9-4.39-9.69-6.54-14.37-3.83,7.13-7.63,14.15-11.31,21.24a2.85,2.85,0,0,0,.32,2.36c3.47,4.49,7,8.87,10.93,13.78ZM152.23,90.5A30.38,30.38,0,0,1,150.08,95c-3.84,5.72-3.51,11.37-.6,17.44,1.89,3.94,3.09,8.26,4.73,12.76,3.22-4.06,6.16-7.68,9-11.43a3.07,3.07,0,0,0,.06-2.55C159.62,104.3,156,97.41,152.23,90.5ZM221.28,116,210,129.87l11.34,10.78,11.19-10.83C228.7,125,225,120.52,221.28,116Zm-27.5,24.71L205,129.84,193.75,116l-11.28,13.9Zm-27.56-24.74c-3.73,4.65-7.24,9-10.79,13.4l11.27,10.95,10.67-10.56Zm52.35,27.13-11-10.68-11,10.72,11,8.87Zm-38.1,8.58L190.94,143l-11-10.66-10.5,10.31Zm63.62-49.4,12.7-19.3H236.61Zm-33.51,52c3.36,2.35,6.42,4.59,9.59,6.63a2.68,2.68,0,0,0,2.45-.1c2.39-1.51,4.67-3.25,7-4.88,1.56-1.08,1.8-2.2.21-3.49l-8.55-7Zm-27.16-.28c3.31,2.24,6.32,4.38,9.44,6.32a2.89,2.89,0,0,0,2.61.1c3-1.84,5.93-3.92,9.1-6.07-3.8-3.1-7.26-6-10.82-8.84Zm-16.79-9c-2.17,1.83-4.17,3.32-5.92,5.11a5.73,5.73,0,0,0-1.45,3.32c-.17,2.12,6.37,7.71,8.31,7.33a.58.58,0,0,0,.26-.09l9.57-6.84ZM133.26,82.77l11.15,16.06c2.73-5.32,5.14-10.11,5.36-16.06Zm57.68,80.83c-3.22-2.33-6-4.46-9-6.38a2.94,2.94,0,0,0-2.69-.15c-3,1.88-5.77,4-8.84,6.2,3.3,2.1,6.31,4.1,9.41,5.93a2.63,2.63,0,0,0,2.29,0C184.94,167.5,187.71,165.64,190.94,163.6Zm6.6,0c3.14,2,5.85,3.71,8.62,5.32.77.44,2,.92,2.58.59,3.09-1.66,6-3.59,9.36-5.62l-10.55-7.49ZM184.45,172c3.27,1.83,6,3.45,8.86,4.92a2.93,2.93,0,0,0,2.35.25c2.84-1.44,5.59-3.09,8.46-4.71-8.08-7.11-8.91-7.19-17.27-1.88-.67.45-1.33.81-2.43,1.46Zm27.16.29a31.45,31.45,0,0,1,4.65,2.73c4.09,3.57,7.89,2.78,11.67-.5a3.43,3.43,0,0,1,.49-.28c1.82-1.24,1.65-2.49,0-3.64-1.89-1.28-3.78-2.56-5.74-3.67a2.64,2.64,0,0,0-2.29-.16c-2.86,1.69-5.61,3.54-8.76,5.56ZM177.38,172c-2.6-1.69-4.88-3.18-7.16-4.65-2.79-1.79-7.29-.7-9.07,2.25a3.38,3.38,0,0,0-.45,1.7c0,2.58,5.69,6.83,7.87,5.71,2.87-1.44,5.66-3.18,8.78-5Zm13.45,7.92c-3-1.75-5.65-3.39-8.37-4.84a3.14,3.14,0,0,0-2.56-.23c-2.74,1.42-5.36,3.08-8.14,4.72C180.54,185.36,180.54,185.36,190.83,179.94Zm26.88.29c-3-1.85-5.52-3.54-8.17-5a3.39,3.39,0,0,0-2.82-.07c-2.64,1.38-5.16,3-7.92,4.69,5.37,3.42,10.45,6.89,16.37,1.8a16.23,16.23,0,0,1,2.54-1.43Zm13.82-31.14c.93-5.37,1.78-10.27,2.75-15.9L224.09,143Zm-75.05-13.54c.74,4.17,1.36,7.63,2,11.45l5.4-4.54ZM229.74,167c.23-2.46.42-4.53.67-7.24l-5.74,4.14Z"/></g><path class="cls-7" d="M378.11,131.08a39.79,39.79,0,0,1,79.57-1.26v1.26"/><path class="cls-7" d="M426.61,131.08a60.11,60.11,0,0,1,120.21-1.55v1.55"/></g><polyline class="cls-10" points="249.17 399.58 173.01 445.44 223.88 494.47 214.45 511.26"/><path class="cls-10" d="M356.39,399.58s35.39,13.25,55.34,40.85"/><path class="cls-11" d="M373.35,378.28s-7.53-9.59-49.32-9.59H277.91c-41.79,0-49.32,9.59-49.32,9.59,17.1,30,0,59.37,0,59.37V551.93a3,3,0,0,0,3,3H370.35a3,3,0,0,0,3-3V437.65S356.25,408.27,373.35,378.28Z"/><path class="cls-12" d="M277.91,345.66v23a20.89,20.89,0,1,0,41.78,0v-23Z"/><path class="cls-13" d="M239.58,318.68c-37.57-7.62-35.17-71.58-35.17-71.58s-7.87-84.71,47.75-100.54,76.48,2.95,76.48,2.95,78.17-16.95,60.24,103c0,0-3.83,66.24-37.71,66.24"/><circle class="cls-14" cx="297.09" cy="268.1" r="81.02"/><path class="cls-15" d="M254.73,308.61s51.85-9.58,87.07-2.22c0,0-9,26.15-38.81,27.26C303,333.65,270.58,336.6,254.73,308.61Z"/><path class="cls-12" d="M286.59,293.9s11.14-10.3,24.32-.74Z"/><path class="cls-14" d="M376,264.66s14.49-5.4,20.63,3.44-1.23,19.4-7.86,23.32-19.39-1-19.39-1Z"/><path class="cls-12" d="M378.11,286.51s5.77-9.21,9.46-6.39C393.34,284.54,378.11,286.51,378.11,286.51Z"/><path class="cls-14" d="M217.26,264.66s-14.49-5.4-20.63,3.44,1.23,19.4,7.86,23.32,19.4-1,19.4-1Z"/><path class="cls-12" d="M215.18,286.51s-5.77-9.21-9.46-6.39C199.93,284.54,215.18,286.51,215.18,286.51Z"/><path class="cls-13" d="M383.87,263l-10.2-58.65-21.43-22.44-41.34-14-29.28,1.47-28.37,5.9-21,17.67-20.62,47.89v22.44s6.6,2.24,10.48,20.27l1.76-.53s-18.14-62.1,26.8-66.52S321,201.8,321,201.8a196.78,196.78,0,0,0,34.14,20.12c20.13,9.34,20.87,42.73,20.87,42.73s-.69,13.78-1.92,18.92l2.62-.53S376.69,267.53,383.87,263Z"/><ellipse class="cls-13" cx="256.71" cy="276.38" rx="7.56" ry="10.13"/><ellipse class="cls-13" cx="340.44" cy="276.38" rx="7.56" ry="10.13"/><path class="cls-13" d="M332.3,148.31s-3.57-21.69-28.8-17.27c0,0-15.13-11.56-26.38-.6,0,0-14.34-13.74-33.83,1.7,0,0-22.08-11-27.24,9.38,0,0-23.22-2.9-23.22,19.85,0,0-13,2.66-6,15.44,0,0-17.09,2.91-11.19,17.65,0,0-18.35,9.92-2.87,24.26,0,0-14.7,9.93-6.21,22.06,0,0-7.54,13.78,7.93,16.54,0,0,1.52,19,22.83,9.25,0,0,23.34,11.22,23.06-13.44,0,0,15.05-10.78,8.38-23.69,0,0,17,2.91,15.81-10.88,0,0,9.16,8.55,23.45-2.82,0,0,15,4.5,22.93-4,0,0,16.83,8.67,22.15-5.42,0,0,4.57,2.58,11-3.55Z"/><line class="cls-16" x1="354.99" y1="224.24" x2="374.08" y2="206.63"/><line class="cls-16" x1="357.92" y1="234.56" x2="377.02" y2="216.94"/><path class="cls-6" d="M294.32,503a3.27,3.27,0,0,1,2.37.83,3,3,0,0,1,.85,2.22v5.43H263.78v-3a5.58,5.58,0,0,1,.37-1.9,4.8,4.8,0,0,1,1.24-1.86l14.44-14.47c1.22-1.23,2.31-2.41,3.24-3.54a22.73,22.73,0,0,0,2.35-3.33,13.57,13.57,0,0,0,1.41-3.3,12.66,12.66,0,0,0,.47-3.52,6.76,6.76,0,0,0-1.67-5,6.37,6.37,0,0,0-4.73-1.7,7.38,7.38,0,0,0-2.47.39,6.86,6.86,0,0,0-2,1.06,7,7,0,0,0-1.52,1.6,6.67,6.67,0,0,0-.94,2,3.89,3.89,0,0,1-1.63,2.24,4.66,4.66,0,0,1-2.9.25l-4.9-.87a18.6,18.6,0,0,1,2-6.25,14.85,14.85,0,0,1,3.69-4.46,15.14,15.14,0,0,1,5.07-2.67,20.94,20.94,0,0,1,6.15-.89,18.64,18.64,0,0,1,6.28,1,14.5,14.5,0,0,1,4.85,2.86,12.52,12.52,0,0,1,3.13,4.41,14.31,14.31,0,0,1,1.11,5.71,15.14,15.14,0,0,1-.78,5,19.19,19.19,0,0,1-2.1,4.35,30.53,30.53,0,0,1-3.07,4q-1.74,1.93-3.69,3.92l-10.33,10.58a26.06,26.06,0,0,1,3.39-.79,18.54,18.54,0,0,1,3.15-.28Z"/><path class="cls-6" d="M303.72,476.54a18.6,18.6,0,0,1,2-6.25,14.6,14.6,0,0,1,3.7-4.46,15.1,15.1,0,0,1,5-2.67,20.26,20.26,0,0,1,6.13-.89,18.49,18.49,0,0,1,6.26,1,14,14,0,0,1,4.68,2.7,11.61,11.61,0,0,1,3.94,8.9A15.65,15.65,0,0,1,335,479a9.57,9.57,0,0,1-1.45,3.06,8.67,8.67,0,0,1-2.35,2.21,14,14,0,0,1-3.2,1.52q8.38,2.76,8.39,11.18a15,15,0,0,1-1.38,6.56,14.28,14.28,0,0,1-3.69,4.75,15.56,15.56,0,0,1-5.39,2.86,21.27,21.27,0,0,1-6.43,1,21.88,21.88,0,0,1-6.28-.81,14,14,0,0,1-4.77-2.41,14.55,14.55,0,0,1-3.54-4,28.6,28.6,0,0,1-2.59-5.69l4.1-1.68a5,5,0,0,1,3-.37,2.79,2.79,0,0,1,2,1.48,20.39,20.39,0,0,0,1.48,2.22,10.68,10.68,0,0,0,1.69,1.86,7.44,7.44,0,0,0,2.13,1.23,8.22,8.22,0,0,0,2.74.43,8.38,8.38,0,0,0,3.39-.64,7.36,7.36,0,0,0,2.42-1.66,6.61,6.61,0,0,0,1.43-2.22,7.52,7.52,0,0,0,.49-2.57,13.7,13.7,0,0,0-.31-3,4.23,4.23,0,0,0-1.39-2.32,7.52,7.52,0,0,0-3.22-1.47,25.53,25.53,0,0,0-5.79-.52v-6.52a20.51,20.51,0,0,0,5-.5,7.67,7.67,0,0,0,3-1.41,4.68,4.68,0,0,0,1.53-2.18,8.76,8.76,0,0,0,.42-2.78,6.59,6.59,0,0,0-1.66-4.87,6.33,6.33,0,0,0-4.72-1.68,7.41,7.41,0,0,0-2.46.39,7,7,0,0,0-2,1.06A7.35,7.35,0,0,0,314.1,473a6.67,6.67,0,0,0-.94,2,4,4,0,0,1-1.63,2.24,4.73,4.73,0,0,1-2.92.25Z"/><path class="cls-6" d="M292.9,426.2v23.64h-4.32V434.33a9.28,9.28,0,0,1,.09-1.06l-6.76,12.85a1.85,1.85,0,0,1-1.72,1.06h-.68a1.92,1.92,0,0,1-1-.27,1.84,1.84,0,0,1-.7-.79L271,433.24c0,.38.06.75.08,1.1s0,.68,0,1v14.5h-4.32V426.2H271a1.57,1.57,0,0,1,.43.09,1.18,1.18,0,0,1,.35.23,2.08,2.08,0,0,1,.3.43l6.62,12.62c.2.38.4.78.58,1.18s.35.81.51,1.24c.16-.44.34-.86.51-1.27s.38-.81.58-1.19L287.49,427a1.84,1.84,0,0,1,.3-.43,1.38,1.38,0,0,1,.36-.23,1.58,1.58,0,0,1,.42-.09Z"/><path class="cls-6" d="M310.66,430.73a2.28,2.28,0,0,1-.47.55,1,1,0,0,1-.61.17,1.4,1.4,0,0,1-.77-.26c-.28-.16-.6-.35-1-.54a10.28,10.28,0,0,0-1.28-.55,5,5,0,0,0-1.63-.25,3.68,3.68,0,0,0-2.54.76,2.54,2.54,0,0,0-.85,2,1.88,1.88,0,0,0,.47,1.3,3.92,3.92,0,0,0,1.22.88,10.57,10.57,0,0,0,1.72.67c.64.2,1.3.41,2,.65a16.47,16.47,0,0,1,2,.82,7.45,7.45,0,0,1,1.72,1.19,5.63,5.63,0,0,1,1.22,1.75,6,6,0,0,1,.46,2.52,8,8,0,0,1-.56,3,7.22,7.22,0,0,1-1.62,2.46,7.81,7.81,0,0,1-2.62,1.65,9.47,9.47,0,0,1-3.53.6,10.58,10.58,0,0,1-2.24-.23,12.08,12.08,0,0,1-2.15-.63,12.8,12.8,0,0,1-2-1,9.46,9.46,0,0,1-1.6-1.28l1.44-2.31a1.29,1.29,0,0,1,.47-.43,1.06,1.06,0,0,1,.62-.17,1.66,1.66,0,0,1,.93.32c.32.22.7.46,1.12.72a10.11,10.11,0,0,0,1.48.72,5.9,5.9,0,0,0,2,.32,4.06,4.06,0,0,0,2.65-.78,2.89,2.89,0,0,0,.94-2.33,2.21,2.21,0,0,0-.46-1.45,3.81,3.81,0,0,0-1.22-.93,9.55,9.55,0,0,0-1.71-.65c-.64-.18-1.3-.37-2-.59a18,18,0,0,1-2-.78,6.4,6.4,0,0,1-1.71-1.21,5.85,5.85,0,0,1-1.21-1.86,7.14,7.14,0,0,1-.49-2.7,6.51,6.51,0,0,1,2.06-4.76,7.63,7.63,0,0,1,2.48-1.55,9.3,9.3,0,0,1,3.39-.58,11.58,11.58,0,0,1,3.95.66,9.05,9.05,0,0,1,3.07,1.83Z"/><path class="cls-6" d="M325.49,445.94a5.56,5.56,0,0,0,2.13-.4,4.4,4.4,0,0,0,1.6-1.13,5.14,5.14,0,0,0,1-1.78,7.75,7.75,0,0,0,.34-2.34V426.2h4.89v14.09a11.11,11.11,0,0,1-.69,3.95,9.22,9.22,0,0,1-2,3.11,9,9,0,0,1-3.14,2,12.14,12.14,0,0,1-8.32,0,8.75,8.75,0,0,1-5.12-5.14,11.11,11.11,0,0,1-.69-3.95V426.2h4.89v14.09a7.45,7.45,0,0,0,.34,2.34,5.14,5.14,0,0,0,1,1.78,4.37,4.37,0,0,0,1.59,1.13A5.59,5.59,0,0,0,325.49,445.94Z"/><circle class="cls-17" cx="388.87" cy="511.26" r="55.37"/><g class="cls-18"><circle class="cls-19" cx="444.24" cy="561.25" r="55.37"/><circle class="cls-19" cx="340.44" cy="461.28" r="55.37"/><line class="cls-19" x1="340.44" y1="461.28" x2="444.24" y2="561.25"/><line class="cls-19" x1="333.51" y1="561.25" x2="449.48" y2="461.28"/></g><path class="cls-10" d="M411.73,440.43c15.52,21.47,21.7,51.62-5.36,91"/><g class="cls-20"><path class="cls-21" d="M225,459.5l3.57-4.08c34.59-33.44,13.83-83.34,13.83-83.34l-2-4.46"/><path class="cls-21" d="M377.34,459.5l-3.56-4.08C339.19,422,360,372.08,360,372.08l2-4.46"/></g></svg>