<svg id="Layer_1" data-name="Layer 1" xmlns="http://www.w3.org/2000/svg" xmlns:xlink="http://www.w3.org/1999/xlink" width="8.5in" height="8.76in" viewBox="0 0 612 630.47"><defs><style>.cls-1,.cls-14,.cls-17,.cls-18,.cls-20,.cls-6{fill:none;}.cls-2{fill:#31c5f4;opacity:0.14;isolation:isolate;}.cls-3{clip-path:url(#clip-path);}.cls-4{fill:#d7eff6;}.cls-5{fill:#9cdbf0;}.cls-18,.cls-6{stroke:#b58451;stroke-width:33.03px;}.cls-14,.cls-6{stroke-miterlimit:10;}.cls-7{fill:#9d832f;}.cls-8{fill:#d6b990;}.cls-9{fill:#00a551;}.cls-10{fill:#a57243;}.cls-11{fill:#5b3419;}.cls-12{fill:#b68451;}.cls-13{fill:#fff;}.cls-14{stroke:#231f20;stroke-width:6.12px;}.cls-15{fill:#f99d1c;}.cls-16{fill:#efd1ad;}.cls-17{stroke:#6f6328;stroke-width:18.35px;}.cls-17,.cls-18,.cls-20{stroke-linecap:round;stroke-linejoin:round;}.cls-19{fill:#6f6328;}.cls-20{stroke:#9cdbf0;stroke-width:4.34px;}</style><clipPath id="clip-path" transform="translate(0 0)"><path class="cls-1" d="M560.05,330.52c-72,114.54,1.41,304-254.14,295.64C137.05,620.64,0,489.2,0,320.25S143,7.64,311.79.41C476.69-6.65,719.32,77.32,560.05,330.52Z"/></clipPath></defs><title>boy-scout</title><path class="cls-2" d="M560.05,330.52c-72,114.54,1.41,304-254.14,295.64C137.05,620.64,0,489.2,0,320.25S143,7.64,311.79.41C476.69-6.65,719.32,77.32,560.05,330.52Z" transform="translate(0 0)"/><g class="cls-3"><path class="cls-4" d="M0,380.24s97.51-130.6,254.79-76.33,347.3-42.15,347.3-42.15v364.4H0Z" transform="translate(0 0)"/><path class="cls-5" d="M94.15,202.33a33.14,33.14,0,0,1,66.27-1.15c0,.38,0,.77,0,1.15" transform="translate(0 0)"/><path class="cls-5" d="M134.54,202.33a50.07,50.07,0,0,1,100.14,0h0" transform="translate(0 0)"/><path class="cls-5" d="M71.64,282.94,19.9,441.55a45.69,45.69,0,0,0,43.44,59.86h44a45.69,45.69,0,0,0,42.76-61.76L91,282.51a10.26,10.26,0,0,0-19.36.43Z" transform="translate(0 0)"/><path class="cls-5" d="M460.51,236.56,396.72,432.13a56.33,56.33,0,0,0,53.55,73.8h54.26c39.35,0,66.57-39.33,52.72-76.16L484.37,236C480.16,224.84,464.22,225.2,460.51,236.56Z" transform="translate(0 0)"/><path class="cls-6" d="M364.2,493.41l31-4.38c55.29-8.77,21.88-49.69,21.88-49.69l-5.64-9.8" transform="translate(0 0)"/><path class="cls-7" d="M300.4,295.41v.12C301.52,295.41,300.4,295.41,300.4,295.41Z" transform="translate(0 0)"/><path class="cls-7" d="M373.43,305.13c-54.41-5.89-69.34-7.7-73-8.25v-1.31c-2.44.4-15.47,2-73.64,8.34-85,9.2-14,97-14,97l87,28v1.42l87.67-28.19S458.38,314.33,373.43,305.13Z" transform="translate(0 0)"/><path class="cls-6" d="M235.43,493.41l-31-4.38c-55.29-8.75-21.88-49.62-21.88-49.62l5.65-9.8" transform="translate(0 0)"/><path class="cls-8" d="M248.47,370.41s-63.05,7.67-83.07,52.5a3.94,3.94,0,0,0,1.26,4.75l33.71,24.85a3.91,3.91,0,0,0,4.83-.15l13.67-11.44L226,547.71a11.5,11.5,0,0,0,11.51,10.7h126.8a11.5,11.5,0,0,0,11.48-10.83L382,440.91l13.56,11.36a4.07,4.07,0,0,0,5,.15l33.49-24.69a4.08,4.08,0,0,0,1.31-5c-20-44.71-83.18-52.38-83.18-52.38" transform="translate(0 0)"/><path class="cls-9" d="M293,395.48s-21.12,3.79-18.33,34.08c0,0,28.33-6.31,25.13-26.37v-7.71Z" transform="translate(0 0)"/><path class="cls-9" d="M306,395.48s21.11,3.79,18.32,34.08c0,0-28.33-6.31-25.12-26.37v-7.71Z" transform="translate(0 0)"/><path class="cls-9" d="M286.23,367l-3.46-7.9-4.39-5.84s-16.51.93-24.94,7.12h0c-8,1.51-16.61,4.64-23.44,10.87,0,0,18.22,25.09,62.46,29.62l2.07-11.6Z" transform="translate(0 0)"/><path class="cls-9" d="M345.81,360.41c-8.43-6.18-25.63-7.74-25.63-7.74l-3.68,6.47L313,367l-8.27,22.27,2.08,11.6c44.23-4.53,62.46-29.62,62.46-29.62C362.46,365,353.81,361.89,345.81,360.41Z" transform="translate(0 0)"/><path class="cls-10" d="M278.38,347.81v23a20.9,20.9,0,0,0,41.8,0v-23Z" transform="translate(0 0)"/><path class="cls-11" d="M240.11,320.35c-37.71-7.64-35.29-71.85-35.29-71.85s-7.9-85,47.92-100.93S408,133.52,390,253.86c0,0-3.84,66.49-37.86,66.49" transform="translate(0 0)"/><circle class="cls-12" cx="297.85" cy="269.57" r="81.34"/><path class="cls-13" d="M255.33,311.83s52-9.61,87.39-2.22c0,0-9,26.25-39,27.36C303.76,337,271.23,339.93,255.33,311.83Z" transform="translate(0 0)"/><path class="cls-10" d="M287.31,295.41s11.18-10.33,24.4-.74Z" transform="translate(0 0)"/><path class="cls-12" d="M377.09,266.12s14.54-5.42,20.7,3.45-1.23,19.48-7.88,23.42-19.47-1-19.47-1Z" transform="translate(0 0)"/><path class="cls-10" d="M379.19,288.06s5.78-9.24,9.49-6.41C394.47,286.08,379.19,288.06,379.19,288.06Z" transform="translate(0 0)"/><path class="cls-12" d="M217.71,266.12s-14.54-5.42-20.7,3.45,1.23,19.48,7.88,23.42,19.48-1,19.48-1Z" transform="translate(0 0)"/><path class="cls-10" d="M215.62,288.06s-5.79-9.24-9.49-6.41C200.33,286.08,215.62,288.06,215.62,288.06Z" transform="translate(0 0)"/><ellipse class="cls-11" cx="257.32" cy="277.89" rx="7.58" ry="10.17"/><ellipse class="cls-11" cx="341.36" cy="277.89" rx="7.58" ry="10.17"/><path class="cls-12" d="M367.77,236.54l7.39-6.9-9.12-32-8.13-9.37-37.73-8.86s-23.15.74-23.89,0-29.09,0-29.09,0l-25.14,8.87-8.45,10.11-12.74,18.24.74,23.17,61.12,2Z" transform="translate(0 0)"/><path class="cls-11" d="M215.29,265.48l4,8.15H224s-3.74-50.64,9.57-75.29c0,0,17.87-12.82,61.76-12.82h4.14c43.89,0,61.77,12.82,61.77,12.82,13.31,24.65,9.56,75.29,9.56,75.29h4.73l4-8.15,5.68-42-20-37-50.53-13.31h-41.9l-53.73,21.69-6.32,51.55Z" transform="translate(0 0)"/><circle class="cls-14" cx="254.78" cy="275.88" r="28.03"/><circle class="cls-14" cx="341.28" cy="275.88" r="28.03"/><path class="cls-14" d="M282.82,275.88s13.3-11,30.43,0" transform="translate(0 0)"/><rect class="cls-15" x="293.01" y="388.43" width="13.6" height="18.42" rx="1.92"/><path class="cls-16" d="M234.52,435.18h43.42a2.32,2.32,0,0,1,2.32,2.32h0v6.55a2.3,2.3,0,0,1-1.3,2.08l-21.74,10.66a2.33,2.33,0,0,1-2,0l-21.68-10a2.32,2.32,0,0,1-1.35-2.1v-7.25A2.32,2.32,0,0,1,234.52,435.18Z" transform="translate(0 0)"/><path class="cls-16" d="M324.68,435.18H368.1a2.32,2.32,0,0,1,2.32,2.32h0v6.55a2.33,2.33,0,0,1-1.3,2.08l-21.74,10.66a2.33,2.33,0,0,1-2,0l-21.68-10a2.32,2.32,0,0,1-1.35-2.1v-7.25A2.32,2.32,0,0,1,324.68,435.18Z" transform="translate(0 0)"/><path class="cls-17" d="M227.45,377.09c4.27,10.79,25.92,72.36-2.42,149.57" transform="translate(0 0)"/><path class="cls-17" d="M374.06,377.09c-4.27,10.79-25.92,72.36,2.42,149.57" transform="translate(0 0)"/><line class="cls-18" x1="213.63" y1="490.35" x2="243.59" y2="493.43"/><line class="cls-18" x1="390.89" y1="489.63" x2="360.93" y2="493.43"/><circle class="cls-16" cx="299.81" cy="441.3" r="4.96"/><circle class="cls-16" cx="299.81" cy="483.72" r="4.96"/><circle class="cls-16" cx="299.81" cy="526.14" r="4.96"/><path class="cls-7" d="M171.79,411.67l18,14.08,14.83-14.59-18.54-14.75S176.52,403.85,171.79,411.67Z" transform="translate(0 0)"/><rect class="cls-8" x="251.66" y="602.5" width="42.32" height="27.97"/><rect class="cls-8" x="308.64" y="602.5" width="42.32" height="27.97"/><path class="cls-8" d="M234.67,554.81h133.7v30.7a17,17,0,0,1-17,17H251.66a17,17,0,0,1-17-17h0v-30.7Z" transform="translate(0 0)"/><rect class="cls-19" x="234.67" y="558.06" width="133.7" height="16.93"/><rect class="cls-15" x="289.65" y="558.06" width="23.75" height="16.93"/><path class="cls-5" d="M379.11,131.69a39.8,39.8,0,0,1,79.59,0" transform="translate(0 0)"/><path class="cls-5" d="M427.61,131.69a60.13,60.13,0,0,1,120.25,0" transform="translate(0 0)"/><path class="cls-5" d="M230.45,70.81a26.32,26.32,0,0,1,6.65-1.13,25.57,25.57,0,0,1,6.87.61,18.14,18.14,0,0,1,6.62,2.92,14.64,14.64,0,0,1,2.76,2.63,15.34,15.34,0,0,1,1.94,3.32l-4.12.47a23.39,23.39,0,0,1,.81-3.09,27.88,27.88,0,0,1,1.12-2.92,23.9,23.9,0,0,1,3.27-5.36,16.22,16.22,0,0,1,4.84-4.07,11.71,11.71,0,0,1,6-1.39,15.59,15.59,0,0,0-4.79,3.06,18.17,18.17,0,0,0-3.3,4.3,30.71,30.71,0,0,0-2.25,5c-.29.87-.57,1.74-.81,2.62s-.47,1.82-.61,2.6l-1.18,6.8-2.94-6.33A13.45,13.45,0,0,0,250,78.48a12.46,12.46,0,0,0-1.91-2A18.51,18.51,0,0,0,243,73.62a38.1,38.1,0,0,0-6-1.74C234.82,71.41,232.67,71.1,230.45,70.81Z" transform="translate(0 0)"/><path class="cls-5" d="M190,61.05a18.09,18.09,0,0,1,9.18-.36,12.36,12.36,0,0,1,4.49,2,10.5,10.5,0,0,1,1.87,1.78,9.83,9.83,0,0,1,1.32,2.26l-2.8.31A18.77,18.77,0,0,1,205.37,63a15.78,15.78,0,0,1,2.22-3.64,11.07,11.07,0,0,1,3.29-2.76,7.75,7.75,0,0,1,4-.94,10.58,10.58,0,0,0-3.25,2.07,12,12,0,0,0-2.24,2.92A20.81,20.81,0,0,0,207.87,64a25.49,25.49,0,0,0-1,3.54L206,72.07l-2-4.22a9,9,0,0,0-.92-1.59,8.6,8.6,0,0,0-1.29-1.34,12.54,12.54,0,0,0-3.45-2,25.32,25.32,0,0,0-4.1-1.19C192.92,61.41,191.46,61.25,190,61.05Z" transform="translate(0 0)"/><rect class="cls-5" x="465.74" y="505.45" width="23.31" height="33.91"/><rect class="cls-5" x="71.03" y="500.03" width="23.31" height="33.91"/><line class="cls-20" x1="168.72" y1="552.07" x2="168.72" y2="561.61"/><line class="cls-20" x1="177.9" y1="554.1" x2="177.9" y2="561.61"/><line class="cls-20" x1="409.59" y1="585.59" x2="409.59" y2="595.13"/><line class="cls-20" x1="418.77" y1="587.62" x2="418.77" y2="595.13"/></g></svg>